<svg width="2427" height="693" viewBox="0 0 2427 693" fill="none" xmlns="http://www.w3.org/2000/svg">
<path d="M0 267.5C0 278.546 8.9543 287.5 20 287.5C31.0457 287.5 40 278.546 40 267.5H20H0ZM20 267.5H40V87H20H0V267.5H20ZM451 87H431V217H451H471V87H451ZM87 20V40H384V20V0H87V20ZM451 87H471C471 38.9512 432.049 0 384 0V20V40C409.957 40 431 61.0426 431 87H451ZM20 87H40C40 61.0426 61.0426 40 87 40V20V0C38.9512 0 0 38.9512 0 87H20Z" fill="#42474A"/>
<path d="M471 477C471 465.954 462.046 457 451 457C439.954 457 431 465.954 431 477H451H471ZM451 477H431V606H451H471V477H451ZM384 673V653H87V673V693H384V673ZM20 606H40V489.5H20H0V606H20ZM87 673V653C61.0426 653 40 631.957 40 606H20H0C0 654.049 38.9512 693 87 693V673ZM451 606H431C431 631.957 409.957 653 384 653V673V693C432.049 693 471 654.049 471 606H451Z" fill="#42474A"/>
<rect x="178.5" y="58.5" width="115" height="45" rx="22.5" fill="#42474A" stroke="black"/>
<circle cx="236" cy="356" r="50" fill="#F7610A"/>
<g clip-path="url(#clip0_21_4)">
<path d="M479.833 277.183C481.415 277.626 482.894 278.376 484.186 279.39C485.478 280.405 486.557 281.664 487.362 283.096C488.166 284.527 488.681 286.104 488.877 287.734C489.072 289.365 488.944 291.019 488.5 292.6L451.575 424.158C450.68 427.351 448.553 430.057 445.663 431.682C442.772 433.306 439.355 433.716 436.163 432.821C432.97 431.926 430.264 429.799 428.639 426.909C427.015 424.018 426.605 420.601 427.5 417.408L464.425 285.833C464.868 284.252 465.619 282.774 466.634 281.483C467.649 280.192 468.908 279.114 470.34 278.31C471.771 277.506 473.347 276.992 474.978 276.797C476.608 276.602 478.261 276.731 479.842 277.175L479.833 277.183ZM421 310.808C423.341 313.152 424.656 316.329 424.656 319.642C424.656 322.954 423.341 326.131 421 328.475L394.5 355L421.017 381.517C423.361 383.862 424.677 387.042 424.676 390.357C424.675 393.673 423.357 396.852 421.013 399.196C418.668 401.54 415.488 402.856 412.172 402.855C408.857 402.854 405.677 401.537 403.333 399.192L367.975 363.833C365.634 361.49 364.319 358.312 364.319 355C364.319 351.687 365.634 348.51 367.975 346.167L403.325 310.808C404.486 309.647 405.864 308.725 407.381 308.097C408.898 307.468 410.524 307.144 412.167 307.144C413.809 307.144 415.435 307.468 416.952 308.097C418.469 308.725 419.839 309.647 421 310.808ZM495 328.475C493.772 327.331 492.787 325.951 492.104 324.417C491.42 322.884 491.053 321.229 491.023 319.55C490.994 317.872 491.303 316.205 491.931 314.648C492.56 313.092 493.496 311.678 494.683 310.491C495.87 309.304 497.284 308.368 498.84 307.74C500.397 307.111 502.064 306.802 503.742 306.832C505.42 306.861 507.076 307.229 508.609 307.912C510.142 308.595 511.522 309.58 512.667 310.808L548.025 346.158C550.368 348.502 551.685 351.681 551.685 354.996C551.685 358.31 550.368 361.489 548.025 363.833L512.675 399.192C511.514 400.353 510.137 401.274 508.62 401.902C507.103 402.531 505.478 402.855 503.836 402.855C502.195 402.856 500.569 402.533 499.052 401.905C497.535 401.277 496.157 400.356 494.996 399.196C493.835 398.035 492.914 396.657 492.285 395.141C491.656 393.624 491.333 391.999 491.332 390.357C491.332 388.715 491.655 387.09 492.283 385.573C492.911 384.056 493.831 382.678 494.992 381.517L521.508 355L495 328.475Z" fill="#F7610A"/>
</g>
<path d="M170.997 216.516L163.366 208.884C160.135 205.653 160.135 200.428 163.366 197.231L230.156 130.406C233.388 127.175 238.613 127.175 241.81 130.406L308.6 197.197C311.831 200.428 311.831 205.653 308.6 208.85L300.969 216.481C297.703 219.747 292.375 219.678 289.178 216.344L249.75 174.956V273.75C249.75 278.322 246.072 282 241.5 282H230.5C225.928 282 222.25 278.322 222.25 273.75V174.956L182.788 216.378C179.591 219.747 174.263 219.816 170.997 216.516Z" fill="#42474A"/>
<g clip-path="url(#clip1_21_4)">
<path d="M238.2 577.27H226.133C218.809 578.765 212.3 582.927 207.869 588.948C203.439 594.969 201.401 602.421 202.153 609.859C202.904 617.297 206.391 624.191 211.936 629.205C217.482 634.218 224.691 636.994 232.167 636.994C239.643 636.994 246.852 634.218 252.397 629.205C257.943 624.191 261.429 617.297 262.181 609.859C262.932 602.421 260.895 594.969 256.464 588.948C252.033 582.927 245.525 578.765 238.2 577.27Z" fill="#42474A"/>
<path d="M252.417 463.779C246.865 458.765 239.648 455.992 232.167 456C224.686 455.992 217.469 458.765 211.917 463.779C206.365 468.793 202.874 475.692 202.123 483.135C201.371 490.578 203.411 498.035 207.848 504.058C212.285 510.082 218.802 514.241 226.133 515.73V577.27H238.2V564.6H316.633C327.834 564.6 338.577 560.15 346.497 552.23C354.417 544.31 358.867 533.568 358.867 522.367V515.73C366.192 514.235 372.7 510.073 377.131 504.052C381.562 498.031 383.599 490.579 382.847 483.141C382.096 475.703 378.61 468.809 373.064 463.795C367.519 458.782 360.309 456.006 352.833 456.006C345.358 456.006 338.148 458.782 332.603 463.795C327.057 468.809 323.571 475.703 322.82 483.141C322.068 490.579 324.105 498.031 328.536 504.052C332.967 510.073 339.475 514.235 346.8 515.73V522.367C346.8 526.328 346.02 530.251 344.504 533.911C342.988 537.571 340.766 540.897 337.965 543.698C335.163 546.499 331.838 548.721 328.178 550.237C324.518 551.753 320.595 552.533 316.633 552.533H238.2V515.73C245.532 514.241 252.048 510.082 256.485 504.058C260.922 498.035 262.963 490.578 262.211 483.135C261.459 475.692 257.969 468.793 252.417 463.779Z" fill="#F7610A"/>
</g>
<path d="M152 374.5C163.046 374.5 172 365.546 172 354.5C172 343.454 163.046 334.5 152 334.5V354.5V374.5ZM20 489.5H40V421.5H20H0V489.5H20ZM87 354.5V374.5H152V354.5V334.5H87V354.5ZM20 421.5H40C40 395.543 61.0426 374.5 87 374.5V354.5V334.5C38.9512 334.5 0 373.451 0 421.5H20Z" fill="#F7610A"/>
<path d="M659.129 407V357.2H699.329V107H659.129V57.2H808.529V107H768.329V205.4H932.129V107H891.329V57.2H1041.33V107H1001.13V357.2H1041.33V407H891.329V357.2H932.129V253.4H768.329V357.2H808.529V407H659.129ZM1224.95 413C1193.75 413 1167.55 407.4 1146.35 396.2C1125.15 385 1109.15 369.8 1098.35 350.6C1087.95 331.4 1082.75 310.2 1082.75 287C1082.75 263.8 1087.95 242.8 1098.35 224C1108.75 205.2 1123.55 190.2 1142.75 179C1161.95 167.4 1184.55 161.6 1210.55 161.6C1236.95 161.6 1259.55 167.4 1278.35 179C1297.55 190.2 1312.15 205.2 1322.15 224C1332.55 242.8 1337.75 263.8 1337.75 287V312.8H1116.35V264.8H1279.55C1279.55 256 1276.75 247.4 1271.15 239C1265.95 230.2 1258.15 222.8 1247.75 216.8C1237.75 210.8 1225.35 207.8 1210.55 207.8C1195.75 207.8 1183.15 211 1172.75 217.4C1162.75 223.4 1154.95 231.2 1149.35 240.8C1144.15 250.4 1141.55 260.2 1141.55 270.2V287C1141.55 309.8 1148.55 328 1162.55 341.6C1176.55 355.2 1197.95 362 1226.75 362C1243.55 362 1259.35 359.4 1274.15 354.2C1288.95 348.6 1301.15 341.4 1310.75 332.6L1335.95 376.4C1323.55 387.6 1307.55 396.6 1287.95 403.4C1268.35 409.8 1247.35 413 1224.95 413ZM1370.85 407V360.8H1408.05V213.8H1367.85V167.6H1465.05V204.2L1457.25 206C1472.45 190.8 1488.85 179.6 1506.45 172.4C1524.45 165.2 1542.25 161.6 1559.85 161.6C1585.05 161.6 1604.85 168.4 1619.25 182C1633.65 195.2 1640.85 216 1640.85 244.4V360.8H1675.05V407H1542.45V360.8H1579.65V260C1579.65 244 1576.05 232.4 1568.85 225.2C1561.65 218 1550.25 214.4 1534.65 214.4C1523.05 214.4 1511.25 216.6 1499.25 221C1487.25 225.4 1474.85 233.2 1462.05 244.4L1469.25 225.2V360.8H1504.05V407H1370.85Z" fill="#42474A"/>
<path d="M1895.21 413C1863.61 413 1836.21 407.2 1813.01 395.6C1790.21 383.6 1772.61 366.6 1760.21 344.6C1748.21 322.6 1742.21 296.2 1742.21 265.4V107H1702.01V57.2H1851.41V107H1811.21V262.4C1811.21 283.6 1814.81 301 1822.01 314.6C1829.21 328.2 1839.41 338.2 1852.61 344.6C1865.81 351 1881.41 354.2 1899.41 354.2C1917.81 354.2 1933.61 351 1946.81 344.6C1960.01 338.2 1970.21 328.2 1977.41 314.6C1984.61 301 1988.21 283.6 1988.21 262.4V107H1948.01V57.2H2087.81V107H2047.61V265.4C2047.61 298.2 2041.41 325.6 2029.01 347.6C2017.01 369.2 1999.61 385.6 1976.81 396.8C1954.01 407.6 1926.81 413 1895.21 413ZM2255.72 407V360.8H2289.32L2228.72 302.6H2250.32L2190.32 360.8H2224.52V407H2097.32V360.8H2127.32L2214.32 279.2L2220.32 297.2L2132.12 213.8H2102.12V167.6H2233.52V213.8H2201.72L2258.12 266.6L2234.12 268.4L2289.92 213.8H2258.72V167.6H2382.92V213.8H2352.92L2270.72 291.2L2266.52 273.2L2358.92 360.8H2390.72V407H2255.72Z" fill="#F7610A"/>
<path d="M663.311 630V619.36H672.971V559.02H663.311V548.38H691.311L715.811 599.76H713.711L738.071 548.38H766.771V559.02H757.111V619.36H766.771V630H735.131V619.36H743.671V566.58L719.311 618.8H710.071L685.431 566.58V619.36H693.971V630H663.311ZM821.731 631.4C812.865 631.4 805.071 629.58 798.351 625.94C791.725 622.3 786.545 617.307 782.811 610.96C779.171 604.52 777.351 597.24 777.351 589.12C777.351 580.907 779.171 573.627 782.811 567.28C786.545 560.933 791.725 555.94 798.351 552.3C805.071 548.66 812.865 546.84 821.731 546.84C830.785 546.84 838.625 548.66 845.251 552.3C851.878 555.94 857.011 560.933 860.651 567.28C864.385 573.627 866.251 580.907 866.251 589.12C866.251 597.24 864.385 604.52 860.651 610.96C857.011 617.307 851.878 622.3 845.251 625.94C838.625 629.58 830.785 631.4 821.731 631.4ZM821.731 618.94C827.705 618.94 832.838 617.727 837.131 615.3C841.518 612.873 844.925 609.467 847.351 605.08C849.871 600.6 851.131 595.327 851.131 589.26C851.131 583.287 849.871 578.06 847.351 573.58C844.925 569.007 841.518 565.507 837.131 563.08C832.838 560.56 827.705 559.3 821.731 559.3C815.851 559.3 810.718 560.56 806.331 563.08C801.945 565.507 798.538 569.007 796.111 573.58C793.778 578.06 792.611 583.287 792.611 589.26C792.611 595.327 793.778 600.6 796.111 605.08C798.538 609.467 801.945 612.873 806.331 615.3C810.718 617.727 815.851 618.94 821.731 618.94ZM877.003 630V619.36H886.663V559.02H877.003V548.38H927.263C935.29 548.38 941.45 550.06 945.743 553.42C950.036 556.687 952.183 561.727 952.183 568.54C952.183 572.18 951.436 575.353 949.943 578.06C948.45 580.673 946.443 582.773 943.923 584.36C941.403 585.853 938.65 586.833 935.663 587.3L934.963 586.18C939.816 586.367 943.83 587.44 947.003 589.4C950.176 591.267 952.556 593.787 954.143 596.96C955.73 600.133 956.523 603.68 956.523 607.6C956.523 614.973 954.283 620.573 949.803 624.4C945.323 628.133 938.603 630 929.643 630H877.003ZM901.363 619.36H925.443C931.043 619.36 935.103 618.193 937.623 615.86C940.143 613.527 941.403 610.26 941.403 606.06C941.403 602.047 940.143 598.827 937.623 596.4C935.103 593.973 931.043 592.76 925.443 592.76H901.363V619.36ZM901.363 581.84H924.043C928.243 581.84 931.416 580.813 933.563 578.76C935.803 576.613 936.923 573.813 936.923 570.36C936.923 566.44 935.756 563.593 933.423 561.82C931.183 559.953 927.45 559.02 922.223 559.02H901.363V581.84ZM967.784 630V619.36H977.444V559.02H967.784V548.38H1001.8V559.02H992.144V619.36H1001.8V630H967.784ZM1011.81 630V619.36H1021.47V559.02H1011.81V548.38H1045.83V559.02H1036.17V619.36H1066.83V598.22H1077.75V630H1011.81ZM1086.46 630V619.36H1096.12V559.02H1086.46V548.38H1157.02V574.56H1147.08V559.02H1110.82V583.24H1130V574.42H1139.1V603.4H1130V593.88H1110.82V619.36H1149.46V603.12H1159.26V630H1086.46ZM1254.83 631.4C1247.55 631.4 1241.25 630.093 1235.93 627.48C1230.61 624.773 1226.55 620.9 1223.75 615.86C1220.95 610.727 1219.55 604.52 1219.55 597.24V559.02H1209.89V548.38H1243.91V559.02H1234.25V596.68C1234.25 601.813 1235.09 606.06 1236.77 609.42C1238.55 612.687 1241.02 615.113 1244.19 616.7C1247.46 618.193 1251.29 618.94 1255.67 618.94C1260.06 618.94 1263.84 618.193 1267.01 616.7C1270.28 615.113 1272.8 612.687 1274.57 609.42C1276.35 606.06 1277.23 601.813 1277.23 596.68V559.02H1267.57V548.38H1299.49V559.02H1289.83V597.24C1289.83 604.893 1288.43 611.24 1285.63 616.28C1282.83 621.32 1278.77 625.1 1273.45 627.62C1268.23 630.14 1262.02 631.4 1254.83 631.4ZM1305.01 630V619.36H1313.41L1341.27 585.9L1340.57 589.96L1315.93 559.02H1307.53V548.38H1342.53V559.02H1333.57L1351.21 581.28L1346.59 582.54L1365.49 559.02H1356.53V548.38H1389.29V559.02H1380.89L1355.13 590.24L1354.15 584.78L1381.59 619.36H1389.99V630H1354.99V619.36H1363.95L1344.35 594.58L1348.97 594.3L1328.81 619.36H1337.77V630H1305.01ZM1439.19 630V619.36H1448.85V559.02H1439.19V548.38H1482.45C1493 548.38 1501.54 550.107 1508.07 553.56C1514.7 556.92 1519.55 561.68 1522.63 567.84C1525.8 573.907 1527.39 581 1527.39 589.12C1527.39 597.333 1525.85 604.52 1522.77 610.68C1519.69 616.747 1514.88 621.507 1508.35 624.96C1501.82 628.32 1493.28 630 1482.73 630H1439.19ZM1463.55 619.36H1481.19C1488.94 619.36 1495.05 618.147 1499.53 615.72C1504.01 613.293 1507.23 609.84 1509.19 605.36C1511.15 600.787 1512.13 595.373 1512.13 589.12C1512.13 582.96 1511.15 577.64 1509.19 573.16C1507.23 568.587 1503.96 565.087 1499.39 562.66C1494.91 560.233 1488.84 559.02 1481.19 559.02H1463.55V619.36ZM1538.17 630V619.36H1547.83V559.02H1538.17V548.38H1608.73V574.56H1598.79V559.02H1562.53V583.24H1581.71V574.42H1590.81V603.4H1581.71V593.88H1562.53V619.36H1601.17V603.12H1610.97V630H1538.17ZM1652.65 630L1626.05 559.02H1616.95V548.38H1651.11V559.02H1641.31L1662.87 617.4H1660.07L1681.63 559.02H1671.83V548.38H1705.01V559.02H1696.05L1669.31 630H1652.65ZM1710.44 630V619.36H1720.1V559.02H1710.44V548.38H1781V574.56H1771.06V559.02H1734.8V583.24H1753.98V574.42H1763.08V603.4H1753.98V593.88H1734.8V619.36H1773.44V603.12H1783.24V630H1710.44ZM1793.84 630V619.36H1803.5V559.02H1793.84V548.38H1827.86V559.02H1818.2V619.36H1848.86V598.22H1859.78V630H1793.84ZM1913.57 631.4C1904.7 631.4 1896.91 629.58 1890.19 625.94C1883.56 622.3 1878.38 617.307 1874.65 610.96C1871.01 604.52 1869.19 597.24 1869.19 589.12C1869.19 580.907 1871.01 573.627 1874.65 567.28C1878.38 560.933 1883.56 555.94 1890.19 552.3C1896.91 548.66 1904.7 546.84 1913.57 546.84C1922.62 546.84 1930.46 548.66 1937.09 552.3C1943.71 555.94 1948.85 560.933 1952.49 567.28C1956.22 573.627 1958.09 580.907 1958.09 589.12C1958.09 597.24 1956.22 604.52 1952.49 610.96C1948.85 617.307 1943.71 622.3 1937.09 625.94C1930.46 629.58 1922.62 631.4 1913.57 631.4ZM1913.57 618.94C1919.54 618.94 1924.67 617.727 1928.97 615.3C1933.35 612.873 1936.76 609.467 1939.19 605.08C1941.71 600.6 1942.97 595.327 1942.97 589.26C1942.97 583.287 1941.71 578.06 1939.19 573.58C1936.76 569.007 1933.35 565.507 1928.97 563.08C1924.67 560.56 1919.54 559.3 1913.57 559.3C1907.69 559.3 1902.55 560.56 1898.17 563.08C1893.78 565.507 1890.37 569.007 1887.95 573.58C1885.61 578.06 1884.45 583.287 1884.45 589.26C1884.45 595.327 1885.61 600.6 1887.95 605.08C1890.37 609.467 1893.78 612.873 1898.17 615.3C1902.55 617.727 1907.69 618.94 1913.57 618.94ZM1968.84 630V619.36H1978.5V559.02H1968.84V548.38H2012.8C2022.51 548.38 2029.79 550.387 2034.64 554.4C2039.59 558.413 2042.06 564.433 2042.06 572.46C2042.06 580.58 2039.59 586.647 2034.64 590.66C2029.79 594.58 2022.51 596.54 2012.8 596.54H1999.5V585.9H2010.98C2016.11 585.9 2020.03 584.78 2022.74 582.54C2025.45 580.207 2026.8 576.847 2026.8 572.46C2026.8 567.887 2025.45 564.527 2022.74 562.38C2020.13 560.14 2016.21 559.02 2010.98 559.02H1993.2V619.36H2006.22V630H1968.84ZM2052.1 630V619.36H2061.76V559.02H2052.1V548.38H2080.1L2104.6 599.76H2102.5L2126.86 548.38H2155.56V559.02H2145.9V619.36H2155.56V630H2123.92V619.36H2132.46V566.58L2108.1 618.8H2098.86L2074.22 566.58V619.36H2082.76V630H2052.1ZM2165.44 630V619.36H2175.1V559.02H2165.44V548.38H2236V574.56H2226.06V559.02H2189.8V583.24H2208.98V574.42H2218.08V603.4H2208.98V593.88H2189.8V619.36H2228.44V603.12H2238.24V630H2165.44ZM2248.84 630V619.36H2258.5V559.02H2248.84V548.38H2274.46L2316.04 606.2V559.02H2306.38V548.38H2338.16V559.02H2328.5V630H2313.24L2270.96 570.22V619.36H2280.76V630H2248.84ZM2365.61 630V619.36H2377.37V559.02H2355.81V578.2H2345.45V548.38H2423.99V578.2H2413.49V559.02H2392.07V619.36H2403.69V630H2365.61Z" fill="#42474A"/>
<defs>
<clipPath id="clip0_21_4">
<rect width="200" height="200" fill="white" transform="translate(358 226)"/>
</clipPath>
<clipPath id="clip1_21_4">
<rect width="181" height="181" fill="white" transform="translate(202 456)"/>
</clipPath>
</defs>
</svg>
