<svg width="1486" height="693" viewBox="0 0 1486 693" fill="none" xmlns="http://www.w3.org/2000/svg">
<path d="M0 267.5C0 278.546 8.9543 287.5 20 287.5C31.0457 287.5 40 278.546 40 267.5H20H0ZM20 267.5H40V87H20H0V267.5H20ZM451 87H431V217H451H471V87H451ZM87 20V40H384V20V0H87V20ZM451 87H471C471 38.9512 432.049 0 384 0V20V40C409.957 40 431 61.0426 431 87H451ZM20 87H40C40 61.0426 61.0426 40 87 40V20V0C38.9512 0 0 38.9512 0 87H20Z" fill="#42474A"/>
<path d="M471 477C471 465.954 462.046 457 451 457C439.954 457 431 465.954 431 477H451H471ZM451 477H431V606H451H471V477H451ZM384 673V653H87V673V693H384V673ZM20 606H40V489.5H20H0V606H20ZM87 673V653C61.0426 653 40 631.957 40 606H20H0C0 654.049 38.9512 693 87 693V673ZM451 606H431C431 631.957 409.957 653 384 653V673V693C432.049 693 471 654.049 471 606H451Z" fill="#42474A"/>
<rect x="178" y="58" width="116" height="46" rx="23" fill="#42474A"/>
<circle cx="236" cy="356" r="50" fill="#F7610A"/>
<g clip-path="url(#clip0_382_1941)">
<path d="M479.833 277.183C481.415 277.626 482.894 278.376 484.186 279.39C485.478 280.405 486.557 281.664 487.362 283.096C488.166 284.527 488.681 286.104 488.877 287.734C489.072 289.365 488.944 291.019 488.5 292.6L451.575 424.158C450.68 427.351 448.553 430.057 445.663 431.682C442.772 433.306 439.355 433.716 436.163 432.821C432.97 431.926 430.264 429.799 428.639 426.909C427.015 424.018 426.605 420.601 427.5 417.408L464.425 285.833C464.868 284.252 465.619 282.774 466.634 281.483C467.649 280.192 468.908 279.114 470.34 278.31C471.771 277.506 473.347 276.992 474.978 276.797C476.608 276.602 478.261 276.731 479.842 277.175L479.833 277.183ZM421 310.808C423.341 313.152 424.656 316.329 424.656 319.642C424.656 322.954 423.341 326.131 421 328.475L394.5 355L421.017 381.517C423.361 383.862 424.677 387.042 424.676 390.357C424.675 393.673 423.357 396.852 421.013 399.196C418.668 401.54 415.488 402.856 412.172 402.855C408.857 402.854 405.677 401.537 403.333 399.192L367.975 363.833C365.634 361.49 364.319 358.312 364.319 355C364.319 351.687 365.634 348.51 367.975 346.167L403.325 310.808C404.486 309.647 405.864 308.725 407.381 308.097C408.898 307.468 410.524 307.144 412.167 307.144C413.809 307.144 415.435 307.468 416.952 308.097C418.469 308.725 419.839 309.647 421 310.808ZM495 328.475C493.772 327.331 492.787 325.951 492.104 324.417C491.42 322.884 491.053 321.229 491.023 319.55C490.994 317.872 491.303 316.205 491.931 314.648C492.56 313.092 493.496 311.678 494.683 310.491C495.87 309.304 497.284 308.368 498.84 307.74C500.397 307.111 502.064 306.802 503.742 306.832C505.42 306.861 507.076 307.229 508.609 307.912C510.142 308.595 511.522 309.58 512.667 310.808L548.025 346.158C550.368 348.502 551.685 351.681 551.685 354.996C551.685 358.31 550.368 361.489 548.025 363.833L512.675 399.192C511.514 400.353 510.137 401.274 508.62 401.902C507.103 402.531 505.478 402.855 503.836 402.855C502.195 402.856 500.569 402.533 499.052 401.905C497.535 401.277 496.157 400.356 494.996 399.196C493.835 398.035 492.914 396.657 492.285 395.141C491.656 393.624 491.333 391.999 491.332 390.357C491.332 388.715 491.655 387.09 492.283 385.573C492.911 384.056 493.831 382.678 494.992 381.517L521.508 355L495 328.475Z" fill="#F7610A"/>
</g>
<path d="M170.997 216.516L163.366 208.884C160.134 205.653 160.134 200.428 163.366 197.231L230.156 130.406C233.387 127.175 238.612 127.175 241.809 130.406L308.6 197.197C311.831 200.428 311.831 205.653 308.6 208.85L300.969 216.481C297.703 219.747 292.375 219.678 289.178 216.344L249.75 174.956V273.75C249.75 278.322 246.072 282 241.5 282H230.5C225.928 282 222.25 278.322 222.25 273.75V174.956L182.787 216.378C179.591 219.747 174.262 219.816 170.997 216.516Z" fill="#F7610A"/>
<g clip-path="url(#clip1_382_1941)">
<path d="M238.2 577.27H226.133C218.809 578.765 212.3 582.927 207.869 588.948C203.438 594.969 201.401 602.421 202.153 609.859C202.904 617.297 206.39 624.191 211.936 629.205C217.481 634.218 224.691 636.994 232.167 636.994C239.642 636.994 246.852 634.218 252.397 629.205C257.943 624.191 261.429 617.297 262.181 609.859C262.932 602.421 260.895 594.969 256.464 588.948C252.033 582.927 245.525 578.765 238.2 577.27Z" fill="#42474A"/>
<path d="M252.417 463.779C246.865 458.765 239.648 455.992 232.167 456C224.686 455.992 217.469 458.765 211.917 463.779C206.365 468.793 202.874 475.692 202.122 483.135C201.371 490.578 203.411 498.035 207.848 504.058C212.285 510.082 218.802 514.241 226.133 515.73V577.27H238.2V564.6H316.633C327.834 564.6 338.577 560.15 346.497 552.23C354.417 544.31 358.867 533.568 358.867 522.367V515.73C366.191 514.235 372.7 510.073 377.131 504.052C381.561 498.031 383.599 490.579 382.847 483.141C382.096 475.703 378.609 468.809 373.064 463.795C367.519 458.782 360.309 456.006 352.833 456.006C345.358 456.006 338.148 458.782 332.603 463.795C327.057 468.809 323.571 475.703 322.819 483.141C322.068 490.579 324.105 498.031 328.536 504.052C332.967 510.073 339.475 514.235 346.8 515.73V522.367C346.8 526.328 346.02 530.251 344.504 533.911C342.988 537.571 340.766 540.897 337.964 543.698C335.163 546.499 331.838 548.721 328.178 550.237C324.518 551.753 320.595 552.533 316.633 552.533H238.2V515.73C245.531 514.241 252.048 510.082 256.485 504.058C260.922 498.035 262.963 490.578 262.211 483.135C261.459 475.692 257.968 468.793 252.417 463.779Z" fill="#F7610A"/>
</g>
<path d="M152 374.5C163.046 374.5 172 365.546 172 354.5C172 343.454 163.046 334.5 152 334.5V354.5V374.5ZM20 489.5H40V421.5H20H0V489.5H20ZM87 354.5V374.5H152V354.5V334.5H87V354.5ZM20 421.5H40C40 395.543 61.0426 374.5 87 374.5V354.5V334.5C38.9512 334.5 0 373.451 0 421.5H20Z" fill="#F7610A"/>
<path d="M592.314 430V405.1H612.414V280H592.314V255.1H667.014V280H646.914V329.2H728.814V280H708.414V255.1H783.414V280H763.314V405.1H783.414V430H708.414V405.1H728.814V353.2H646.914V405.1H667.014V430H592.314ZM875.224 433C859.624 433 846.524 430.2 835.924 424.6C825.324 419 817.324 411.4 811.924 401.8C806.724 392.2 804.124 381.6 804.124 370C804.124 358.4 806.724 347.9 811.924 338.5C817.124 329.1 824.524 321.6 834.124 316C843.724 310.2 855.024 307.3 868.024 307.3C881.224 307.3 892.524 310.2 901.924 316C911.524 321.6 918.824 329.1 923.824 338.5C929.024 347.9 931.624 358.4 931.624 370V382.9H820.924V358.9H902.524C902.524 354.5 901.124 350.2 898.324 346C895.724 341.6 891.824 337.9 886.624 334.9C881.624 331.9 875.424 330.4 868.024 330.4C860.624 330.4 854.324 332 849.124 335.2C844.124 338.2 840.224 342.1 837.424 346.9C834.824 351.7 833.524 356.6 833.524 361.6V370C833.524 381.4 837.024 390.5 844.024 397.3C851.024 404.1 861.724 407.5 876.124 407.5C884.524 407.5 892.424 406.2 899.824 403.6C907.224 400.8 913.324 397.2 918.124 392.8L930.724 414.7C924.524 420.3 916.524 424.8 906.724 428.2C896.924 431.4 886.424 433 875.224 433ZM948.173 430V406.9H966.773V333.4H946.673V310.3H995.273V328.6L991.373 329.5C998.973 321.9 1007.17 316.3 1015.97 312.7C1024.97 309.1 1033.87 307.3 1042.67 307.3C1055.27 307.3 1065.17 310.7 1072.37 317.5C1079.57 324.1 1083.17 334.5 1083.17 348.7V406.9H1100.27V430H1033.97V406.9H1052.57V356.5C1052.57 348.5 1050.77 342.7 1047.17 339.1C1043.57 335.5 1037.87 333.7 1030.07 333.7C1024.27 333.7 1018.37 334.8 1012.37 337C1006.37 339.2 1000.17 343.1 993.773 348.7L997.373 339.1V406.9H1014.77V430H948.173Z" fill="#42474A"/>
<path d="M1210.36 433C1194.56 433 1180.86 430.1 1169.26 424.3C1157.86 418.3 1149.06 409.8 1142.86 398.8C1136.86 387.8 1133.86 374.6 1133.86 359.2V280H1113.76V255.1H1188.46V280H1168.36V357.7C1168.36 368.3 1170.16 377 1173.76 383.8C1177.36 390.6 1182.46 395.6 1189.06 398.8C1195.66 402 1203.46 403.6 1212.46 403.6C1221.66 403.6 1229.56 402 1236.16 398.8C1242.76 395.6 1247.86 390.6 1251.46 383.8C1255.06 377 1256.86 368.3 1256.86 357.7V280H1236.76V255.1H1306.66V280H1286.56V359.2C1286.56 375.6 1283.46 389.3 1277.26 400.3C1271.26 411.1 1262.56 419.3 1251.16 424.9C1239.76 430.3 1226.16 433 1210.36 433ZM1390.61 430V406.9H1407.41L1377.11 377.8H1387.91L1357.91 406.9H1375.01V430H1311.41V406.9H1326.41L1369.91 366.1L1372.91 375.1L1328.81 333.4H1313.81V310.3H1379.51V333.4H1363.61L1391.81 359.8L1379.81 360.7L1407.71 333.4H1392.11V310.3H1454.21V333.4H1439.21L1398.11 372.1L1396.01 363.1L1442.21 406.9H1458.11V430H1390.61Z" fill="#F7610A"/>
<path d="M582.406 543V537.68H587.236V507.51H582.406V502.19H596.406L608.656 527.88H607.606L619.786 502.19H634.136V507.51H629.306V537.68H634.136V543H618.316V537.68H622.586V511.29L610.406 537.4H605.786L593.466 511.29V537.68H597.736V543H582.406ZM661.616 543.7C657.182 543.7 653.286 542.79 649.926 540.97C646.612 539.15 644.022 536.653 642.156 533.48C640.336 530.26 639.426 526.62 639.426 522.56C639.426 518.453 640.336 514.813 642.156 511.64C644.022 508.467 646.612 505.97 649.926 504.15C653.286 502.33 657.182 501.42 661.616 501.42C666.142 501.42 670.062 502.33 673.376 504.15C676.689 505.97 679.256 508.467 681.076 511.64C682.942 514.813 683.876 518.453 683.876 522.56C683.876 526.62 682.942 530.26 681.076 533.48C679.256 536.653 676.689 539.15 673.376 540.97C670.062 542.79 666.142 543.7 661.616 543.7ZM661.616 537.47C664.602 537.47 667.169 536.863 669.316 535.65C671.509 534.437 673.212 532.733 674.426 530.54C675.686 528.3 676.316 525.663 676.316 522.63C676.316 519.643 675.686 517.03 674.426 514.79C673.212 512.503 671.509 510.753 669.316 509.54C667.169 508.28 664.602 507.65 661.616 507.65C658.676 507.65 656.109 508.28 653.916 509.54C651.722 510.753 650.019 512.503 648.806 514.79C647.639 517.03 647.056 519.643 647.056 522.63C647.056 525.663 647.639 528.3 648.806 530.54C650.019 532.733 651.722 534.437 653.916 535.65C656.109 536.863 658.676 537.47 661.616 537.47ZM689.251 543V537.68H694.081V507.51H689.251V502.19H714.381C718.395 502.19 721.475 503.03 723.621 504.71C725.768 506.343 726.841 508.863 726.841 512.27C726.841 514.09 726.468 515.677 725.721 517.03C724.975 518.337 723.971 519.387 722.711 520.18C721.451 520.927 720.075 521.417 718.581 521.65L718.231 521.09C720.658 521.183 722.665 521.72 724.251 522.7C725.838 523.633 727.028 524.893 727.821 526.48C728.615 528.067 729.011 529.84 729.011 531.8C729.011 535.487 727.891 538.287 725.651 540.2C723.411 542.067 720.051 543 715.571 543H689.251ZM701.431 537.68H713.471C716.271 537.68 718.301 537.097 719.561 535.93C720.821 534.763 721.451 533.13 721.451 531.03C721.451 529.023 720.821 527.413 719.561 526.2C718.301 524.987 716.271 524.38 713.471 524.38H701.431V537.68ZM701.431 518.92H712.771C714.871 518.92 716.458 518.407 717.531 517.38C718.651 516.307 719.211 514.907 719.211 513.18C719.211 511.22 718.628 509.797 717.461 508.91C716.341 507.977 714.475 507.51 711.861 507.51H701.431V518.92ZM734.642 543V537.68H739.472V507.51H734.642V502.19H751.652V507.51H746.822V537.68H751.652V543H734.642ZM756.654 543V537.68H761.484V507.51H756.654V502.19H773.664V507.51H768.834V537.68H784.164V527.11H789.624V543H756.654ZM793.978 543V537.68H798.808V507.51H793.978V502.19H829.258V515.28H824.288V507.51H806.158V519.62H815.748V515.21H820.298V529.7H815.748V524.94H806.158V537.68H825.478V529.56H830.378V543H793.978ZM878.167 543.7C874.527 543.7 871.377 543.047 868.717 541.74C866.057 540.387 864.027 538.45 862.627 535.93C861.227 533.363 860.527 530.26 860.527 526.62V507.51H855.697V502.19H872.707V507.51H867.877V526.34C867.877 528.907 868.297 531.03 869.137 532.71C870.023 534.343 871.26 535.557 872.847 536.35C874.48 537.097 876.393 537.47 878.587 537.47C880.78 537.47 882.67 537.097 884.257 536.35C885.89 535.557 887.15 534.343 888.037 532.71C888.923 531.03 889.367 528.907 889.367 526.34V507.51H884.537V502.19H900.497V507.51H895.667V526.62C895.667 530.447 894.967 533.62 893.567 536.14C892.167 538.66 890.137 540.55 887.477 541.81C884.863 543.07 881.76 543.7 878.167 543.7ZM903.257 543V537.68H907.457L921.387 520.95L921.037 522.98L908.717 507.51H904.517V502.19H922.017V507.51H917.537L926.357 518.64L924.047 519.27L933.497 507.51H929.017V502.19H945.397V507.51H941.197L928.317 523.12L927.827 520.39L941.547 537.68H945.747V543H928.247V537.68H932.727L922.927 525.29L925.237 525.15L915.157 537.68H919.637V543H903.257ZM970.345 543V537.68H975.175V507.51H970.345V502.19H991.975C997.249 502.19 1001.52 503.053 1004.79 504.78C1008.1 506.46 1010.53 508.84 1012.07 511.92C1013.65 514.953 1014.45 518.5 1014.45 522.56C1014.45 526.667 1013.68 530.26 1012.14 533.34C1010.6 536.373 1008.19 538.753 1004.93 540.48C1001.66 542.16 997.389 543 992.115 543H970.345ZM982.525 537.68H991.345C995.219 537.68 998.275 537.073 1000.52 535.86C1002.76 534.647 1004.37 532.92 1005.35 530.68C1006.33 528.393 1006.82 525.687 1006.82 522.56C1006.82 519.48 1006.33 516.82 1005.35 514.58C1004.37 512.293 1002.73 510.543 1000.45 509.33C998.205 508.117 995.172 507.51 991.345 507.51H982.525V537.68ZM1019.84 543V537.68H1024.67V507.51H1019.84V502.19H1055.12V515.28H1050.15V507.51H1032.02V519.62H1041.61V515.21H1046.16V529.7H1041.61V524.94H1032.02V537.68H1051.34V529.56H1056.24V543H1019.84ZM1077.08 543L1063.78 507.51H1059.23V502.19H1076.31V507.51H1071.41L1082.19 536.7H1080.79L1091.57 507.51H1086.67V502.19H1103.26V507.51H1098.78L1085.41 543H1077.08ZM1105.97 543V537.68H1110.8V507.51H1105.97V502.19H1141.25V515.28H1136.28V507.51H1118.15V519.62H1127.74V515.21H1132.29V529.7H1127.74V524.94H1118.15V537.68H1137.47V529.56H1142.37V543H1105.97ZM1147.67 543V537.68H1152.5V507.51H1147.67V502.19H1164.68V507.51H1159.85V537.68H1175.18V527.11H1180.64V543H1147.67ZM1207.53 543.7C1203.1 543.7 1199.2 542.79 1195.84 540.97C1192.53 539.15 1189.94 536.653 1188.07 533.48C1186.25 530.26 1185.34 526.62 1185.34 522.56C1185.34 518.453 1186.25 514.813 1188.07 511.64C1189.94 508.467 1192.53 505.97 1195.84 504.15C1199.2 502.33 1203.1 501.42 1207.53 501.42C1212.06 501.42 1215.98 502.33 1219.29 504.15C1222.61 505.97 1225.17 508.467 1226.99 511.64C1228.86 514.813 1229.79 518.453 1229.79 522.56C1229.79 526.62 1228.86 530.26 1226.99 533.48C1225.17 536.653 1222.61 539.15 1219.29 540.97C1215.98 542.79 1212.06 543.7 1207.53 543.7ZM1207.53 537.47C1210.52 537.47 1213.09 536.863 1215.23 535.65C1217.43 534.437 1219.13 532.733 1220.34 530.54C1221.6 528.3 1222.23 525.663 1222.23 522.63C1222.23 519.643 1221.6 517.03 1220.34 514.79C1219.13 512.503 1217.43 510.753 1215.23 509.54C1213.09 508.28 1210.52 507.65 1207.53 507.65C1204.59 507.65 1202.03 508.28 1199.83 509.54C1197.64 510.753 1195.94 512.503 1194.72 514.79C1193.56 517.03 1192.97 519.643 1192.97 522.63C1192.97 525.663 1193.56 528.3 1194.72 530.54C1195.94 532.733 1197.64 534.437 1199.83 535.65C1202.03 536.863 1204.59 537.47 1207.53 537.47ZM1235.17 543V537.68H1240V507.51H1235.17V502.19H1257.15C1262 502.19 1265.64 503.193 1268.07 505.2C1270.54 507.207 1271.78 510.217 1271.78 514.23C1271.78 518.29 1270.54 521.323 1268.07 523.33C1265.64 525.29 1262 526.27 1257.15 526.27H1250.5V520.95H1256.24C1258.81 520.95 1260.77 520.39 1262.12 519.27C1263.47 518.103 1264.15 516.423 1264.15 514.23C1264.15 511.943 1263.47 510.263 1262.12 509.19C1260.81 508.07 1258.85 507.51 1256.24 507.51H1247.35V537.68H1253.86V543H1235.17ZM1276.8 543V537.68H1281.63V507.51H1276.8V502.19H1290.8L1303.05 527.88H1302L1314.18 502.19H1328.53V507.51H1323.7V537.68H1328.53V543H1312.71V537.68H1316.98V511.29L1304.8 537.4H1300.18L1287.86 511.29V537.68H1292.13V543H1276.8ZM1333.47 543V537.68H1338.3V507.51H1333.47V502.19H1368.75V515.28H1363.78V507.51H1345.65V519.62H1355.24V515.21H1359.79V529.7H1355.24V524.94H1345.65V537.68H1364.97V529.56H1369.87V543H1333.47ZM1375.17 543V537.68H1380V507.51H1375.17V502.19H1387.98L1408.77 531.1V507.51H1403.94V502.19H1419.83V507.51H1415V543H1407.37L1386.23 513.11V537.68H1391.13V543H1375.17ZM1433.55 543V537.68H1439.43V507.51H1428.65V517.1H1423.47V502.19H1462.74V517.1H1457.49V507.51H1446.78V537.68H1452.59V543H1433.55Z" fill="#42474A"/>
<defs>
<clipPath id="clip0_382_1941">
<rect width="200" height="200" fill="white" transform="translate(358 226)"/>
</clipPath>
<clipPath id="clip1_382_1941">
<rect width="181" height="181" fill="white" transform="translate(202 456)"/>
</clipPath>
</defs>
</svg>
