<svg width="2077" height="820" viewBox="0 0 2077 820" fill="none" xmlns="http://www.w3.org/2000/svg">
<path d="M0 267.5C0 278.546 8.9543 287.5 20 287.5C31.0457 287.5 40 278.546 40 267.5H20H0ZM20 267.5H40V87H20H0V267.5H20ZM451 87H431V217H451H471V87H451ZM87 20V40H384V20V0H87V20ZM451 87H471C471 38.9512 432.049 0 384 0V20V40C409.957 40 431 61.0426 431 87H451ZM20 87H40C40 61.0426 61.0426 40 87 40V20V0C38.9512 0 0 38.9512 0 87H20Z" fill="#F5F5F7"/>
<path d="M471 477C471 465.954 462.046 457 451 457C439.954 457 431 465.954 431 477H451H471ZM451 477H431V606H451H471V477H451ZM384 673V653H87V673V693H384V673ZM20 606H40V489.5H20H0V606H20ZM87 673V653C61.0426 653 40 631.957 40 606H20H0C0 654.049 38.9512 693 87 693V673ZM451 606H431C431 631.957 409.957 653 384 653V673V693C432.049 693 471 654.049 471 606H451Z" fill="#F5F5F7"/>
<rect x="178" y="58" width="116" height="46" rx="23" fill="#F5F5F7"/>
<circle cx="236" cy="356" r="50" fill="#F7610A"/>
<g clip-path="url(#clip0_382_1963)">
<path d="M479.833 277.183C481.415 277.626 482.894 278.376 484.186 279.39C485.478 280.405 486.557 281.664 487.362 283.096C488.166 284.527 488.681 286.104 488.877 287.734C489.072 289.365 488.944 291.019 488.5 292.6L451.575 424.158C450.68 427.351 448.553 430.057 445.663 431.682C442.772 433.306 439.355 433.716 436.163 432.821C432.97 431.926 430.264 429.799 428.639 426.909C427.015 424.018 426.605 420.601 427.5 417.408L464.425 285.833C464.868 284.252 465.619 282.774 466.634 281.483C467.649 280.192 468.908 279.114 470.34 278.31C471.771 277.506 473.347 276.992 474.978 276.797C476.608 276.602 478.261 276.731 479.842 277.175L479.833 277.183ZM421 310.808C423.341 313.152 424.656 316.329 424.656 319.642C424.656 322.954 423.341 326.131 421 328.475L394.5 355L421.017 381.517C423.361 383.862 424.677 387.042 424.676 390.357C424.675 393.673 423.357 396.852 421.013 399.196C418.668 401.54 415.488 402.856 412.172 402.855C408.857 402.854 405.677 401.537 403.333 399.192L367.975 363.833C365.634 361.49 364.319 358.312 364.319 355C364.319 351.687 365.634 348.51 367.975 346.167L403.325 310.808C404.486 309.647 405.864 308.725 407.381 308.097C408.898 307.468 410.524 307.144 412.167 307.144C413.809 307.144 415.435 307.468 416.952 308.097C418.469 308.725 419.839 309.647 421 310.808ZM495 328.475C493.772 327.331 492.787 325.951 492.104 324.417C491.42 322.884 491.053 321.229 491.023 319.55C490.994 317.872 491.303 316.205 491.931 314.648C492.56 313.092 493.496 311.678 494.683 310.491C495.87 309.304 497.284 308.368 498.84 307.74C500.397 307.111 502.064 306.802 503.742 306.832C505.42 306.861 507.076 307.229 508.609 307.912C510.142 308.595 511.522 309.58 512.667 310.808L548.025 346.158C550.368 348.502 551.685 351.681 551.685 354.996C551.685 358.31 550.368 361.489 548.025 363.833L512.675 399.192C511.514 400.353 510.137 401.274 508.62 401.902C507.103 402.531 505.478 402.855 503.836 402.855C502.195 402.856 500.569 402.533 499.052 401.905C497.535 401.277 496.157 400.356 494.996 399.196C493.835 398.035 492.914 396.657 492.285 395.141C491.656 393.624 491.333 391.999 491.332 390.357C491.332 388.715 491.655 387.09 492.283 385.573C492.911 384.056 493.831 382.678 494.992 381.517L521.508 355L495 328.475Z" fill="#F7610A"/>
</g>
<path d="M170.997 216.515L163.366 208.884C160.134 205.653 160.134 200.428 163.366 197.231L230.156 130.406C233.387 127.175 238.612 127.175 241.809 130.406L308.6 197.196C311.831 200.428 311.831 205.653 308.6 208.85L300.969 216.481C297.703 219.746 292.375 219.678 289.178 216.343L249.75 174.956V273.75C249.75 278.321 246.072 282 241.5 282H230.5C225.928 282 222.25 278.321 222.25 273.75V174.956L182.787 216.378C179.591 219.746 174.262 219.815 170.997 216.515Z" fill="#F7610A"/>
<g clip-path="url(#clip1_382_1963)">
<path d="M238.2 577.27H226.133C218.809 578.765 212.3 582.926 207.869 588.948C203.438 594.969 201.401 602.421 202.153 609.859C202.904 617.297 206.39 624.191 211.936 629.204C217.481 634.218 224.691 636.993 232.167 636.993C239.642 636.993 246.852 634.218 252.397 629.204C257.943 624.191 261.429 617.297 262.181 609.859C262.932 602.421 260.895 594.969 256.464 588.948C252.033 582.926 245.525 578.765 238.2 577.27Z" fill="#F5F5F7"/>
<path d="M252.417 463.779C246.865 458.765 239.648 455.992 232.167 456C224.686 455.992 217.469 458.765 211.917 463.779C206.365 468.793 202.874 475.692 202.122 483.135C201.371 490.578 203.411 498.035 207.848 504.058C212.285 510.082 218.802 514.241 226.133 515.73V577.27H238.2V564.6H316.633C327.834 564.6 338.577 560.15 346.497 552.23C354.417 544.31 358.867 533.568 358.867 522.367V515.73C366.191 514.235 372.7 510.073 377.131 504.052C381.561 498.031 383.599 490.579 382.847 483.141C382.096 475.703 378.609 468.809 373.064 463.795C367.519 458.782 360.309 456.006 352.833 456.006C345.358 456.006 338.148 458.782 332.603 463.795C327.057 468.809 323.571 475.703 322.819 483.141C322.068 490.579 324.105 498.031 328.536 504.052C332.967 510.073 339.475 514.235 346.8 515.73V522.367C346.8 526.328 346.02 530.251 344.504 533.911C342.988 537.571 340.766 540.897 337.964 543.698C335.163 546.499 331.838 548.721 328.178 550.237C324.518 551.753 320.595 552.533 316.633 552.533H238.2V515.73C245.531 514.241 252.048 510.082 256.485 504.058C260.922 498.035 262.963 490.578 262.211 483.135C261.459 475.692 257.968 468.793 252.417 463.779Z" fill="#F7610A"/>
</g>
<path d="M152 374.5C163.046 374.5 172 365.546 172 354.5C172 343.454 163.046 334.5 152 334.5V354.5V374.5ZM20 489.5H40V421.5H20H0V489.5H20ZM87 354.5V374.5H152V354.5V334.5H87V354.5ZM20 421.5H40C40 395.543 61.0426 374.5 87 374.5V354.5V334.5C38.9512 334.5 0 373.451 0 421.5H20Z" fill="#F7610A"/>
<path d="M617.857 403V361.5H651.357V153H617.857V111.5H742.357V153H708.857V235H845.357V153H811.357V111.5H936.357V153H902.857V361.5H936.357V403H811.357V361.5H845.357V275H708.857V361.5H742.357V403H617.857ZM1089.37 408C1063.37 408 1041.54 403.333 1023.87 394C1006.21 384.667 992.873 372 983.873 356C975.206 340 970.873 322.333 970.873 303C970.873 283.667 975.206 266.167 983.873 250.5C992.54 234.833 1004.87 222.333 1020.87 213C1036.87 203.333 1055.71 198.5 1077.37 198.5C1099.37 198.5 1118.21 203.333 1133.87 213C1149.87 222.333 1162.04 234.833 1170.37 250.5C1179.04 266.167 1183.37 283.667 1183.37 303V324.5H998.873V284.5H1134.87C1134.87 277.167 1132.54 270 1127.87 263C1123.54 255.667 1117.04 249.5 1108.37 244.5C1100.04 239.5 1089.71 237 1077.37 237C1065.04 237 1054.54 239.667 1045.87 245C1037.54 250 1031.04 256.5 1026.37 264.5C1022.04 272.5 1019.87 280.667 1019.87 289V303C1019.87 322 1025.71 337.167 1037.37 348.5C1049.04 359.833 1066.87 365.5 1090.87 365.5C1104.87 365.5 1118.04 363.333 1130.37 359C1142.71 354.333 1152.87 348.333 1160.87 341L1181.87 377.5C1171.54 386.833 1158.21 394.333 1141.87 400C1125.54 405.333 1108.04 408 1089.37 408ZM1210.96 403V364.5H1241.96V242H1208.46V203.5H1289.46V234L1282.96 235.5C1295.62 222.833 1309.29 213.5 1323.96 207.5C1338.96 201.5 1353.79 198.5 1368.46 198.5C1389.46 198.5 1405.96 204.167 1417.96 215.5C1429.96 226.5 1435.96 243.833 1435.96 267.5V364.5H1464.46V403H1353.96V364.5H1384.96V280.5C1384.96 267.167 1381.96 257.5 1375.96 251.5C1369.96 245.5 1360.46 242.5 1347.46 242.5C1337.79 242.5 1327.96 244.333 1317.96 248C1307.96 251.667 1297.62 258.167 1286.96 267.5L1292.96 251.5V364.5H1321.96V403H1210.96Z" fill="#F5F5F7"/>
<path d="M1647.93 408C1621.59 408 1598.76 403.167 1579.43 393.5C1560.43 383.5 1545.76 369.333 1535.43 351C1525.43 332.667 1520.43 310.667 1520.43 285V153H1486.93V111.5H1611.43V153H1577.93V282.5C1577.93 300.167 1580.93 314.667 1586.93 326C1592.93 337.333 1601.43 345.667 1612.43 351C1623.43 356.333 1636.43 359 1651.43 359C1666.76 359 1679.93 356.333 1690.93 351C1701.93 345.667 1710.43 337.333 1716.43 326C1722.43 314.667 1725.43 300.167 1725.43 282.5V153H1691.93V111.5H1808.43V153H1774.93V285C1774.93 312.333 1769.76 335.167 1759.43 353.5C1749.43 371.5 1734.93 385.167 1715.93 394.5C1696.93 403.5 1674.26 408 1647.93 408ZM1948.35 403V364.5H1976.35L1925.85 316H1943.85L1893.85 364.5H1922.35V403H1816.35V364.5H1841.35L1913.85 296.5L1918.85 311.5L1845.35 242H1820.35V203.5H1929.85V242H1903.35L1950.35 286L1930.35 287.5L1976.85 242H1950.85V203.5H2054.35V242H2029.35L1960.85 306.5L1957.35 291.5L2034.35 364.5H2060.85V403H1948.35Z" fill="#F7610A"/>
<path d="M628.309 568V559.26H636.244V509.695H628.309V500.955H651.309L671.434 543.16H669.709L689.719 500.955H713.294V509.695H705.359V559.26H713.294V568H687.304V559.26H694.319V515.905L674.309 558.8H666.719L646.479 515.905V559.26H653.494V568H628.309ZM758.44 569.15C751.157 569.15 744.755 567.655 739.235 564.665C733.792 561.675 729.537 557.573 726.47 552.36C723.48 547.07 721.985 541.09 721.985 534.42C721.985 527.673 723.48 521.693 726.47 516.48C729.537 511.267 733.792 507.165 739.235 504.175C744.755 501.185 751.157 499.69 758.44 499.69C765.877 499.69 772.317 501.185 777.76 504.175C783.203 507.165 787.42 511.267 790.41 516.48C793.477 521.693 795.01 527.673 795.01 534.42C795.01 541.09 793.477 547.07 790.41 552.36C787.42 557.573 783.203 561.675 777.76 564.665C772.317 567.655 765.877 569.15 758.44 569.15ZM758.44 558.915C763.347 558.915 767.563 557.918 771.09 555.925C774.693 553.932 777.492 551.133 779.485 547.53C781.555 543.85 782.59 539.518 782.59 534.535C782.59 529.628 781.555 525.335 779.485 521.655C777.492 517.898 774.693 515.023 771.09 513.03C767.563 510.96 763.347 509.925 758.44 509.925C753.61 509.925 749.393 510.96 745.79 513.03C742.187 515.023 739.388 517.898 737.395 521.655C735.478 525.335 734.52 529.628 734.52 534.535C734.52 539.518 735.478 543.85 737.395 547.53C739.388 551.133 742.187 553.932 745.79 555.925C749.393 557.918 753.61 558.915 758.44 558.915ZM803.842 568V559.26H811.777V509.695H803.842V500.955H845.127C851.72 500.955 856.78 502.335 860.307 505.095C863.833 507.778 865.597 511.918 865.597 517.515C865.597 520.505 864.983 523.112 863.757 525.335C862.53 527.482 860.882 529.207 858.812 530.51C856.742 531.737 854.48 532.542 852.027 532.925L851.452 532.005C855.438 532.158 858.735 533.04 861.342 534.65C863.948 536.183 865.903 538.253 867.207 540.86C868.51 543.467 869.162 546.38 869.162 549.6C869.162 555.657 867.322 560.257 863.642 563.4C859.962 566.467 854.442 568 847.082 568H803.842ZM823.852 559.26H843.632C848.232 559.26 851.567 558.302 853.637 556.385C855.707 554.468 856.742 551.785 856.742 548.335C856.742 545.038 855.707 542.393 853.637 540.4C851.567 538.407 848.232 537.41 843.632 537.41H823.852V559.26ZM823.852 528.44H842.482C845.932 528.44 848.538 527.597 850.302 525.91C852.142 524.147 853.062 521.847 853.062 519.01C853.062 515.79 852.103 513.452 850.187 511.995C848.347 510.462 845.28 509.695 840.987 509.695H823.852V528.44ZM878.412 568V559.26H886.347V509.695H878.412V500.955H906.357V509.695H898.422V559.26H906.357V568H878.412ZM914.574 568V559.26H922.509V509.695H914.574V500.955H942.519V509.695H934.584V559.26H959.769V541.895H968.739V568H914.574ZM975.892 568V559.26H983.827V509.695H975.892V500.955H1033.85V522.46H1025.69V509.695H995.902V529.59H1011.66V522.345H1019.13V546.15H1011.66V538.33H995.902V559.26H1027.64V545.92H1035.69V568H975.892ZM1114.2 569.15C1108.22 569.15 1103.05 568.077 1098.68 565.93C1094.31 563.707 1090.97 560.525 1088.67 556.385C1086.37 552.168 1085.22 547.07 1085.22 541.09V509.695H1077.29V500.955H1105.23V509.695H1097.3V540.63C1097.3 544.847 1097.99 548.335 1099.37 551.095C1100.82 553.778 1102.86 555.772 1105.46 557.075C1108.15 558.302 1111.29 558.915 1114.89 558.915C1118.5 558.915 1121.6 558.302 1124.21 557.075C1126.89 555.772 1128.96 553.778 1130.42 551.095C1131.87 548.335 1132.6 544.847 1132.6 540.63V509.695H1124.67V500.955H1150.89V509.695H1142.95V541.09C1142.95 547.377 1141.8 552.59 1139.5 556.73C1137.2 560.87 1133.87 563.975 1129.5 566.045C1125.2 568.115 1120.11 569.15 1114.2 569.15ZM1155.42 568V559.26H1162.32L1185.21 531.775L1184.63 535.11L1164.39 509.695H1157.49V500.955H1186.24V509.695H1178.88L1193.37 527.98L1189.58 529.015L1205.1 509.695H1197.74V500.955H1224.65V509.695H1217.75L1196.59 535.34L1195.79 530.855L1218.33 559.26H1225.23V568H1196.48V559.26H1203.84L1187.74 538.905L1191.53 538.675L1174.97 559.26H1182.33V568H1155.42ZM1265.64 568V559.26H1273.57V509.695H1265.64V500.955H1301.17C1309.84 500.955 1316.85 502.373 1322.22 505.21C1327.66 507.97 1331.65 511.88 1334.18 516.94C1336.79 521.923 1338.09 527.75 1338.09 534.42C1338.09 541.167 1336.82 547.07 1334.29 552.13C1331.76 557.113 1327.82 561.023 1322.45 563.86C1317.08 566.62 1310.07 568 1301.4 568H1265.64ZM1285.65 559.26H1300.14C1306.5 559.26 1311.52 558.263 1315.2 556.27C1318.88 554.277 1321.53 551.44 1323.14 547.76C1324.75 544.003 1325.55 539.557 1325.55 534.42C1325.55 529.36 1324.75 524.99 1323.14 521.31C1321.53 517.553 1318.85 514.678 1315.09 512.685C1311.41 510.692 1306.43 509.695 1300.14 509.695H1285.65V559.26ZM1346.95 568V559.26H1354.88V509.695H1346.95V500.955H1404.91V522.46H1396.74V509.695H1366.96V529.59H1382.71V522.345H1390.19V546.15H1382.71V538.33H1366.96V559.26H1398.7V545.92H1406.75V568H1346.95ZM1440.98 568L1419.13 509.695H1411.66V500.955H1439.72V509.695H1431.67L1449.38 557.65H1447.08L1464.79 509.695H1456.74V500.955H1483.99V509.695H1476.63L1454.67 568H1440.98ZM1488.45 568V559.26H1496.39V509.695H1488.45V500.955H1546.41V522.46H1538.25V509.695H1508.46V529.59H1524.22V522.345H1531.69V546.15H1524.22V538.33H1508.46V559.26H1540.2V545.92H1548.25V568H1488.45ZM1556.96 568V559.26H1564.89V509.695H1556.96V500.955H1584.9V509.695H1576.97V559.26H1602.15V541.895H1611.12V568H1556.96ZM1655.31 569.15C1648.02 569.15 1641.62 567.655 1636.1 564.665C1630.66 561.675 1626.4 557.573 1623.34 552.36C1620.35 547.07 1618.85 541.09 1618.85 534.42C1618.85 527.673 1620.35 521.693 1623.34 516.48C1626.4 511.267 1630.66 507.165 1636.1 504.175C1641.62 501.185 1648.02 499.69 1655.31 499.69C1662.74 499.69 1669.18 501.185 1674.63 504.175C1680.07 507.165 1684.29 511.267 1687.28 516.48C1690.34 521.693 1691.88 527.673 1691.88 534.42C1691.88 541.09 1690.34 547.07 1687.28 552.36C1684.29 557.573 1680.07 561.675 1674.63 564.665C1669.18 567.655 1662.74 569.15 1655.31 569.15ZM1655.31 558.915C1660.21 558.915 1664.43 557.918 1667.96 555.925C1671.56 553.932 1674.36 551.133 1676.35 547.53C1678.42 543.85 1679.46 539.518 1679.46 534.535C1679.46 529.628 1678.42 525.335 1676.35 521.655C1674.36 517.898 1671.56 515.023 1667.96 513.03C1664.43 510.96 1660.21 509.925 1655.31 509.925C1650.48 509.925 1646.26 510.96 1642.66 513.03C1639.05 515.023 1636.25 517.898 1634.26 521.655C1632.34 525.335 1631.39 529.628 1631.39 534.535C1631.39 539.518 1632.34 543.85 1634.26 547.53C1636.25 551.133 1639.05 553.932 1642.66 555.925C1646.26 557.918 1650.48 558.915 1655.31 558.915ZM1700.71 568V559.26H1708.64V509.695H1700.71V500.955H1736.82C1744.79 500.955 1750.77 502.603 1754.76 505.9C1758.82 509.197 1760.85 514.142 1760.85 520.735C1760.85 527.405 1758.82 532.388 1754.76 535.685C1750.77 538.905 1744.79 540.515 1736.82 540.515H1725.89V531.775H1735.32C1739.54 531.775 1742.76 530.855 1744.98 529.015C1747.21 527.098 1748.32 524.338 1748.32 520.735C1748.32 516.978 1747.21 514.218 1744.98 512.455C1742.84 510.615 1739.62 509.695 1735.32 509.695H1720.72V559.26H1731.41V568H1700.71ZM1769.1 568V559.26H1777.04V509.695H1769.1V500.955H1792.1L1812.23 543.16H1810.5L1830.51 500.955H1854.09V509.695H1846.15V559.26H1854.09V568H1828.1V559.26H1835.11V515.905L1815.1 558.8H1807.51L1787.27 515.905V559.26H1794.29V568H1769.1ZM1862.2 568V559.26H1870.14V509.695H1862.2V500.955H1920.16V522.46H1912V509.695H1882.21V529.59H1897.97V522.345H1905.44V546.15H1897.97V538.33H1882.21V559.26H1913.95V545.92H1922V568H1862.2ZM1930.71 568V559.26H1938.64V509.695H1930.71V500.955H1951.75L1985.91 548.45V509.695H1977.97V500.955H2004.08V509.695H1996.14V568H1983.61L1948.88 518.895V559.26H1956.93V568H1930.71ZM2026.63 568V559.26H2036.29V509.695H2018.58V525.45H2010.07V500.955H2074.58V525.45H2065.96V509.695H2048.36V559.26H2057.91V568H2026.63Z" fill="#F5F5F7"/>
<defs>
<clipPath id="clip0_382_1963">
<rect width="200" height="200" fill="white" transform="translate(358 226)"/>
</clipPath>
<clipPath id="clip1_382_1963">
<rect width="181" height="181" fill="white" transform="translate(202 456)"/>
</clipPath>
</defs>
</svg>
