<svg width="558" height="693" viewBox="0 0 558 693" fill="none" xmlns="http://www.w3.org/2000/svg">
<path d="M0 267.5C0 278.546 8.9543 287.5 20 287.5C31.0457 287.5 40 278.546 40 267.5H20H0ZM20 267.5H40V87H20H0V267.5H20ZM451 87H431V217H451H471V87H451ZM87 20V40H384V20V0H87V20ZM451 87H471C471 38.9512 432.049 0 384 0V20V40C409.957 40 431 61.0426 431 87H451ZM20 87H40C40 61.0426 61.0426 40 87 40V20V0C38.9512 0 0 38.9512 0 87H20Z" fill="#42474A"/>
<path d="M471 477C471 465.954 462.046 457 451 457C439.954 457 431 465.954 431 477H451H471ZM451 477H431V606H451H471V477H451ZM384 673V653H87V673V693H384V673ZM20 606H40V489.5H20H0V606H20ZM87 673V653C61.0426 653 40 631.957 40 606H20H0C0 654.049 38.9512 693 87 693V673ZM451 606H431C431 631.957 409.957 653 384 653V673V693C432.049 693 471 654.049 471 606H451Z" fill="#42474A"/>
<rect x="178.5" y="58.5" width="115" height="45" rx="22.5" fill="#42474A" stroke="black"/>
<circle cx="236" cy="356" r="50" fill="#F7610A"/>
<g clip-path="url(#clip0_32_25)">
<path d="M479.833 277.183C481.415 277.626 482.894 278.376 484.186 279.39C485.478 280.405 486.557 281.664 487.362 283.096C488.166 284.527 488.681 286.104 488.877 287.734C489.072 289.365 488.944 291.019 488.5 292.6L451.575 424.158C450.68 427.351 448.553 430.057 445.663 431.682C442.772 433.306 439.355 433.716 436.163 432.821C432.97 431.926 430.264 429.799 428.639 426.909C427.015 424.018 426.605 420.601 427.5 417.408L464.425 285.833C464.868 284.252 465.619 282.774 466.634 281.483C467.649 280.192 468.908 279.114 470.34 278.31C471.771 277.506 473.347 276.992 474.978 276.797C476.608 276.602 478.261 276.731 479.842 277.175L479.833 277.183ZM421 310.808C423.341 313.152 424.656 316.329 424.656 319.642C424.656 322.954 423.341 326.131 421 328.475L394.5 355L421.017 381.517C423.361 383.862 424.677 387.042 424.676 390.357C424.675 393.673 423.357 396.852 421.013 399.196C418.668 401.54 415.488 402.856 412.172 402.855C408.857 402.854 405.677 401.537 403.333 399.192L367.975 363.833C365.634 361.49 364.319 358.312 364.319 355C364.319 351.687 365.634 348.51 367.975 346.167L403.325 310.808C404.486 309.647 405.864 308.725 407.381 308.097C408.898 307.468 410.524 307.144 412.167 307.144C413.809 307.144 415.435 307.468 416.952 308.097C418.469 308.725 419.839 309.647 421 310.808ZM495 328.475C493.772 327.331 492.787 325.951 492.104 324.417C491.42 322.884 491.053 321.229 491.023 319.55C490.994 317.872 491.303 316.205 491.931 314.648C492.56 313.092 493.496 311.678 494.683 310.491C495.87 309.304 497.284 308.368 498.84 307.74C500.397 307.111 502.064 306.802 503.742 306.832C505.42 306.861 507.076 307.229 508.609 307.912C510.142 308.595 511.522 309.58 512.667 310.808L548.025 346.158C550.368 348.502 551.685 351.681 551.685 354.996C551.685 358.31 550.368 361.489 548.025 363.833L512.675 399.192C511.514 400.353 510.137 401.274 508.62 401.902C507.103 402.531 505.478 402.855 503.836 402.855C502.195 402.856 500.569 402.533 499.052 401.905C497.535 401.277 496.157 400.356 494.996 399.196C493.835 398.035 492.914 396.657 492.285 395.141C491.656 393.624 491.333 391.999 491.332 390.357C491.332 388.715 491.655 387.09 492.283 385.573C492.911 384.056 493.831 382.678 494.992 381.517L521.508 355L495 328.475Z" fill="#F7610A"/>
</g>
<path d="M170.997 216.516L163.366 208.884C160.135 205.653 160.135 200.428 163.366 197.231L230.156 130.406C233.388 127.175 238.613 127.175 241.81 130.406L308.6 197.197C311.831 200.428 311.831 205.653 308.6 208.85L300.969 216.481C297.703 219.747 292.375 219.678 289.178 216.344L249.75 174.956V273.75C249.75 278.322 246.072 282 241.5 282H230.5C225.928 282 222.25 278.322 222.25 273.75V174.956L182.788 216.378C179.591 219.747 174.263 219.816 170.997 216.516Z" fill="#42474A"/>
<g clip-path="url(#clip1_32_25)">
<path d="M238.2 577.27H226.133C218.809 578.765 212.3 582.927 207.869 588.948C203.439 594.969 201.401 602.421 202.153 609.859C202.904 617.297 206.391 624.191 211.936 629.205C217.482 634.218 224.691 636.994 232.167 636.994C239.643 636.994 246.852 634.218 252.397 629.205C257.943 624.191 261.429 617.297 262.181 609.859C262.932 602.421 260.895 594.969 256.464 588.948C252.033 582.927 245.525 578.765 238.2 577.27Z" fill="#42474A"/>
<path d="M252.417 463.779C246.865 458.765 239.648 455.992 232.167 456C224.686 455.992 217.469 458.765 211.917 463.779C206.365 468.793 202.874 475.692 202.123 483.135C201.371 490.578 203.411 498.035 207.848 504.058C212.285 510.082 218.802 514.241 226.133 515.73V577.27H238.2V564.6H316.633C327.834 564.6 338.577 560.15 346.497 552.23C354.417 544.31 358.867 533.568 358.867 522.367V515.73C366.192 514.235 372.7 510.073 377.131 504.052C381.562 498.031 383.599 490.579 382.847 483.141C382.096 475.703 378.61 468.809 373.064 463.795C367.519 458.782 360.309 456.006 352.833 456.006C345.358 456.006 338.148 458.782 332.603 463.795C327.057 468.809 323.571 475.703 322.82 483.141C322.068 490.579 324.105 498.031 328.536 504.052C332.967 510.073 339.475 514.235 346.8 515.73V522.367C346.8 526.328 346.02 530.251 344.504 533.911C342.988 537.571 340.766 540.897 337.965 543.698C335.163 546.499 331.838 548.721 328.178 550.237C324.518 551.753 320.595 552.533 316.633 552.533H238.2V515.73C245.532 514.241 252.048 510.082 256.485 504.058C260.922 498.035 262.963 490.578 262.211 483.135C261.459 475.692 257.969 468.793 252.417 463.779Z" fill="#F7610A"/>
</g>
<path d="M152 374.5C163.046 374.5 172 365.546 172 354.5C172 343.454 163.046 334.5 152 334.5V354.5V374.5ZM20 489.5H40V421.5H20H0V489.5H20ZM87 354.5V374.5H152V354.5V334.5H87V354.5ZM20 421.5H40C40 395.543 61.0426 374.5 87 374.5V354.5V334.5C38.9512 334.5 0 373.451 0 421.5H20Z" fill="#F7610A"/>
<defs>
<clipPath id="clip0_32_25">
<rect width="200" height="200" fill="white" transform="translate(358 226)"/>
</clipPath>
<clipPath id="clip1_32_25">
<rect width="181" height="181" fill="white" transform="translate(202 456)"/>
</clipPath>
</defs>
</svg>
